<?xml version="1.0" encoding="UTF-8" standalone="no"?>
<!DOCTYPE svg PUBLIC "-//W3C//DTD SVG 1.1//EN" "http://www.w3.org/Graphics/SVG/1.1/DTD/svg11.dtd">
<svg width="100%" height="100%" viewBox="0 0 2048 2048" version="1.1" xmlns="http://www.w3.org/2000/svg" xmlns:xlink="http://www.w3.org/1999/xlink" xml:space="preserve" xmlns:serif="http://www.serif.com/" style="fill-rule:evenodd;clip-rule:evenodd;stroke-linejoin:round;stroke-miterlimit:2;">
    <g transform="matrix(1,0,0,1,-2975,0)">
        <g id="Icon" transform="matrix(0.700018,0,0,1,891.999,0)">
            <rect x="2975.64" y="0" width="2925.64" height="2048" style="fill:none;"/>
            <g id="Trans" transform="matrix(1.77465,0,0,1.24228,2415.37,-266.182)">
                <g transform="matrix(0.804969,0,0,-0.804969,746.048,1852.55)">
                    <path d="M163.824,50.308C159.207,78.09 155.164,100.808 154.84,100.8C154.512,100.793 146.82,92.98 137.746,83.437C125.086,70.125 121.082,66.461 120.543,67.699C120.16,68.59 116.203,91.343 111.754,118.269C107.305,145.195 103.527,167.363 103.359,167.535C103.188,167.703 95.496,159.945 86.266,150.293C77.035,140.64 69.289,132.937 69.055,133.172C68.754,133.468 51.965,231.894 51.762,234.543C51.754,234.664 43.98,226.656 34.496,216.746C22.133,203.832 17.141,199.218 16.883,200.468C16.684,201.429 12.805,224.496 8.262,251.726L0,301.238L11.621,313.527C18.016,320.285 23.48,325.812 23.766,325.816C24.055,325.816 26.766,310.851 29.793,292.566C32.82,274.277 35.562,259.316 35.887,259.316C36.316,259.316 1176.66,1450.97 1193.38,1468.89L1195.78,1471.46L1166.76,1480.39C1150.81,1485.3 1137.75,1489.65 1137.75,1490.07C1137.75,1490.48 1142.39,1495.62 1148.08,1501.5L1158.41,1512.17L1201.83,1498.83C1225.71,1491.49 1245.59,1485.19 1246,1484.84C1246.42,1484.49 1238.66,1475.68 1228.75,1465.27C1218.85,1454.86 1210.75,1446.11 1210.75,1445.83C1210.76,1445.55 1230.45,1439.28 1254.5,1431.91C1278.56,1424.54 1298.41,1418.36 1298.62,1418.19C1298.84,1418.02 1290.66,1409.21 1280.45,1398.61C1270.25,1388 1262,1379.23 1262.12,1379.11C1262.24,1378.99 1282.08,1372.79 1306.22,1365.34C1330.36,1357.89 1350.22,1351.67 1350.36,1351.54C1350.49,1351.4 1342.23,1342.57 1332,1331.91L1313.41,1312.54L1346.82,1302.19C1365.21,1296.5 1385.08,1290.39 1391,1288.62C1396.91,1286.84 1401.75,1285.11 1401.75,1284.75C1401.75,1283.99 174.035,0.433 172.953,0.058C172.547,-0.078 168.441,22.531 163.824,50.308ZM771.141,665.269C1150.94,1062.32 1350.33,1271.46 1349.5,1271.91C1348.81,1272.3 1336.32,1276.27 1321.75,1280.74C1307.17,1285.21 1294.49,1289.1 1293.56,1289.39C1292.32,1289.77 1145.72,1137.09 741.168,714.109C438.281,397.422 187.973,135.75 184.934,132.617L179.406,126.914L184.66,95.117C190.016,62.687 190.781,58.496 191.25,59.019C191.398,59.179 452.348,331.996 771.141,665.269ZM720.102,732.597C1038.08,1064.99 1298.37,1337.29 1298.52,1337.7C1298.66,1338.11 1285.61,1342.53 1269.52,1347.53L1240.25,1356.61L1237.13,1353.46C1232.6,1348.89 132.672,198.644 129.961,195.64L127.676,193.113L133.211,160.019C136.254,141.816 138.746,126.621 138.746,126.246C138.746,125.875 139.469,126.172 140.352,126.906C141.238,127.64 402.125,400.203 720.102,732.597ZM673.715,804.664C988.992,1134.3 1246.57,1404.38 1246.1,1404.82C1245.63,1405.27 1232.47,1409.55 1216.86,1414.34L1188.48,1423.04L1181.75,1416.17C1178.04,1412.4 931.891,1155.07 634.742,844.316C337.598,533.566 90.277,275.039 85.148,269.816L75.816,260.316L81.516,226.058L87.215,191.804L93.848,198.558C97.496,202.273 358.438,475.023 673.715,804.664ZM261.754,1203.4C261.738,1205.36 165.816,1784.25 165.02,1787.18C164.367,1789.59 163.324,1790.33 158.41,1791.85C155.199,1792.84 152.363,1793.86 152.105,1794.12C151.625,1794.6 146.691,1824.14 147.047,1824.4C147.156,1824.48 156.75,1821.61 168.367,1818.02L189.492,1811.48L193.883,1784.9L198.277,1758.32L208.262,1755.13C213.75,1753.38 223.426,1750.36 229.758,1748.4L241.273,1744.85L245.758,1718.17L250.246,1691.49L271.246,1685.03C282.793,1681.48 292.43,1678.4 292.652,1678.2C292.879,1678 295.035,1666.03 297.449,1651.61C299.859,1637.19 301.98,1625.25 302.16,1625.07C302.34,1624.88 311.805,1621.87 323.191,1618.37C334.578,1614.86 344.121,1611.77 344.395,1611.5C344.977,1610.92 389.707,1341.3 389.719,1338.32C389.727,1336.05 365.875,1310.49 365.793,1312.67C365.734,1314.27 320.98,1585.37 320.289,1588.32C319.949,1589.77 318.145,1590.8 313.664,1592.11C310.277,1593.1 307.395,1593.78 307.254,1593.61C307.117,1593.45 317.934,1527.42 331.297,1446.88L355.594,1300.45L343.918,1288.23C337.5,1281.52 331.969,1276.31 331.629,1276.67C331.293,1277.02 316.902,1362.69 299.656,1467.05L268.293,1656.78L262.27,1658.59C257.875,1659.91 256.164,1660.08 255.941,1659.22C255.777,1658.57 270.297,1569.52 288.207,1461.33L320.773,1264.62L314.836,1257.96C311.57,1254.31 306.191,1248.66 302.883,1245.41C297.129,1239.76 296.84,1239.6 296.309,1241.91C296,1243.23 277.969,1351.85 256.238,1483.27C234.504,1614.7 216.391,1722.54 215.984,1722.9C214.812,1723.96 204.668,1727.07 204.137,1726.54C203.871,1726.27 222.125,1614.52 244.699,1478.19C267.277,1341.86 285.723,1229.64 285.695,1228.82C285.637,1227.09 261.766,1201.75 261.754,1203.4Z" style="fill:rgb(0,242,255);fill-rule:nonzero;"/>
                </g>
                <g transform="matrix(-0.955462,-0.295113,0.295113,-0.955462,1405.71,2264.66)">
                    <path d="M200.157,1677.51L840.914,395.999L1481.67,1677.51L1091.39,1677.51L840.914,1176.55L590.435,1677.51L200.157,1677.51Z" style="fill:rgb(175,0,255);"/>
                </g>
            </g>
        </g>
    </g>
</svg>
